<?xml version="1.0" encoding="UTF-8"?>
<svg version="1.1" xmlns="http://www.w3.org/2000/svg" width="512" height="512">
<path d="M0 0 C28.54614 -0.18687883 57.09218834 -0.32795428 85.63881683 -0.41449738 C98.89353381 -0.45574892 112.14787072 -0.51198986 125.40234375 -0.60351562 C136.95491238 -0.68325125 148.50720576 -0.73486544 160.0600419 -0.75270796 C166.17739338 -0.76313797 172.29395742 -0.78765056 178.41105652 -0.84584045 C184.16993769 -0.90017843 189.92770781 -0.91688496 195.68682098 -0.90486145 C197.79919729 -0.90706071 199.91161108 -0.92295333 202.02376556 -0.9536438 C218.046672 -1.17502523 218.046672 -1.17502523 223.0037384 1.80690002 C224.97224029 3.77282367 226.46949034 5.69070427 228 8 C228.66 8.33 229.32 8.66 230 9 C230 9.66 230 10.32 230 11 C230.54140625 11.21269531 231.0828125 11.42539062 231.640625 11.64453125 C234.85307395 13.49009381 237.20604366 16.0392467 239.75 18.6875 C243.85438208 22.89378398 248.00927869 26.88332614 252.57421875 30.59765625 C254 32 254 32 255 35 C256.31403276 35.70394612 257.6520257 36.36345658 259 37 C262.24813551 39.43610163 265.28066245 41.97851384 268 45 C268 45.66 268 46.32 268 47 C268.59458008 47.2678833 269.18916016 47.5357666 269.80175781 47.81176758 C272.02239757 49.01210673 273.4243607 50.20702998 275.171875 52.01171875 C275.7498584 52.60130371 276.3278418 53.19088867 276.92333984 53.79833984 C277.82753662 54.73347412 277.82753662 54.73347412 278.75 55.6875 C283.09641974 60.11463737 287.45443965 64.40568503 292.1953125 68.4140625 C294.98745646 70.86776477 297.55643341 73.53350558 300.140625 76.203125 C301.98032909 78.06705123 301.98032909 78.06705123 304.234375 79.609375 C304.81703125 80.06828125 305.3996875 80.5271875 306 81 C306 81.66 306 82.32 306 83 C306.58265625 83.25394531 307.1653125 83.50789063 307.765625 83.76953125 C310.24188033 85.13320333 311.80520626 86.64225203 313.75 88.6875 C317.10358338 92.13510908 320.58186001 95.33461068 324.23828125 98.45703125 C324.81964844 98.96621094 325.40101563 99.47539062 326 100 C326.52431107 100.42513382 327.04862213 100.85026764 327.58882141 101.2882843 C329.48486486 103.58812599 329.36292273 104.97322539 329.34057617 107.93041992 C329.34034958 108.93123093 329.34012299 109.93204193 329.33988953 110.96318054 C329.32440567 112.04138565 329.30892181 113.11959076 329.29296875 114.23046875 C329.28872391 115.33602615 329.28447906 116.44158356 329.28010559 117.5806427 C329.26329437 121.11650812 329.22563685 124.65180645 329.1875 128.1875 C329.17245636 130.58267407 329.1587674 132.97785706 329.14648438 135.37304688 C329.11338285 141.24889185 329.06315893 147.12440542 329 153 C329.60231445 153.28230469 330.20462891 153.56460938 330.82519531 153.85546875 C333.89091486 155.46886045 336.19250617 157.6725453 338.75 160 C339.25660156 160.45117188 339.76320313 160.90234375 340.28515625 161.3671875 C341.56545817 162.53360812 342.78791729 163.76283971 344 165 C344 165.66 344 166.32 344 167 C344.57621094 167.2475 345.15242188 167.495 345.74609375 167.75 C348.3370806 169.18694245 350.02044807 170.85958333 352.0625 173 C354.33653856 175.37442798 356.24521929 177.16347952 359 179 C359 179.66 359 180.32 359 181 C359.99 181.33 360.98 181.66 362 182 C362 182.66 362 183.32 362 184 C362.99 184.33 363.98 184.66 365 185 C366.39962033 187.79924065 366.12596719 190.09934616 366.12698364 193.23207092 C366.12854363 193.87827548 366.13010362 194.52448004 366.13171089 195.19026655 C366.13571373 197.36522989 366.13253402 199.54012398 366.12939453 201.71508789 C366.13074888 203.27039125 366.132529 204.82569428 366.13470459 206.3809967 C366.1392746 210.61222339 366.13749123 214.84342578 366.1343255 219.07465291 C366.13180013 223.49446635 366.1341399 227.91427767 366.13571167 232.33409119 C366.13753265 239.7563413 366.13512872 247.17858147 366.13037109 254.60083008 C366.12492661 263.19412725 366.12669277 271.78740071 366.1321975 280.38069731 C366.13672826 287.7471487 366.13737942 295.11359293 366.13475883 302.48004526 C366.13319611 306.88484902 366.13300219 311.28964161 366.13629532 315.69444466 C366.13917357 319.83365813 366.1371992 323.97284087 366.13140106 328.11205101 C366.1300733 329.6354988 366.13046785 331.15894915 366.13266373 332.68239594 C366.13537457 334.75327037 366.13199498 336.82404476 366.12698364 338.89491272 C366.12660662 340.05653962 366.12622959 341.21816652 366.12584114 342.41499424 C366 345 366 345 365 346 C353.12 346 341.24 346 329 346 C329 376.36 329 406.72 329 438 C220.43 438 111.86 438 0 438 C0 407.64 0 377.28 0 346 C-11.88 346 -23.76 346 -36 346 C-37.81735988 344.18264012 -37.15811209 341.34984343 -37.18081665 338.90405273 C-37.18802117 338.26026358 -37.19522568 337.61647442 -37.20264852 336.9531765 C-37.22550214 334.78000006 -37.24098296 332.60683518 -37.25634766 330.43359375 C-37.27078928 328.88156346 -37.28554682 327.32953609 -37.30059814 325.7775116 C-37.43109891 311.58246811 -37.49678279 297.38662654 -37.54844093 283.19110107 C-37.58732059 272.69775175 -37.65560064 262.20547853 -37.76298869 251.71260166 C-37.83593398 244.33587392 -37.87429082 236.95943969 -37.88746679 229.58236599 C-37.89632094 225.17672144 -37.92047876 220.77240549 -37.98213577 216.36715698 C-38.03956176 212.21671669 -38.05400629 208.06828358 -38.03626251 203.91750526 C-38.03713797 202.39893931 -38.05328574 200.88028866 -38.08630753 199.36208153 C-38.32175481 187.93857684 -38.32175481 187.93857684 -35.05854416 183.15252686 C-32.81496848 180.87563073 -30.54705481 178.92555938 -28 177 C-26.7443765 175.92318956 -25.49327549 174.84104407 -24.25 173.75 C-23.28707031 172.92628906 -23.28707031 172.92628906 -22.3046875 172.0859375 C-18.64166255 168.77058949 -15.19651293 165.23793572 -11.74316406 161.70605469 C-11.2169043 161.17141602 -10.69064453 160.63677734 -10.1484375 160.0859375 C-9.68614746 159.6120459 -9.22385742 159.1381543 -8.74755859 158.64990234 C-7 157 -7 157 -3.93908691 155.3044281 C-1.57127915 153.30855737 -1.03880047 152.19883829 -0.43740273 149.11689377 C-0.21812573 145.23161953 -0.19171539 141.36823879 -0.22705078 137.47924805 C-0.21887759 135.98097645 -0.20807379 134.48271725 -0.19483948 132.98448181 C-0.16640587 128.92266732 -0.17475408 124.86166364 -0.18970728 120.79980826 C-0.19908619 116.55296092 -0.17463773 112.30631161 -0.15377808 108.05952454 C-0.11942942 100.02019124 -0.11550161 91.98114237 -0.12250316 83.94175035 C-0.12899391 74.78815501 -0.10157159 65.63475956 -0.07130075 56.48122346 C-0.00979908 37.65412258 0.00911494 18.82719246 0 0 Z " fill="#E91D24" transform="translate(92,38)"/>
<path d="M0 0 C60.39 0 120.78 0 183 0 C183 31.35 183 62.7 183 95 C216.66 95 250.32 95 285 95 C285 118.43 285 141.86 285 166 C190.95 166 96.9 166 0 166 C0 111.22 0 56.44 0 0 Z " fill="#FEFEFE" transform="translate(114,59)"/>
<path d="M0 0 C94.05 0 188.1 0 285 0 C285 23.76 285 47.52 285 72 C190.95 72 96.9 72 0 72 C0 48.24 0 24.48 0 0 Z " fill="#FEFDFD" transform="translate(114,383)"/>
<path d="M0 0 C28.54614 -0.18687883 57.09218834 -0.32795428 85.63881683 -0.41449738 C98.89353381 -0.45574892 112.14787072 -0.51198986 125.40234375 -0.60351562 C136.95491238 -0.68325125 148.50720576 -0.73486544 160.0600419 -0.75270796 C166.17739338 -0.76313797 172.29395742 -0.78765056 178.41105652 -0.84584045 C184.16993769 -0.90017843 189.92770781 -0.91688496 195.68682098 -0.90486145 C197.79919729 -0.90706071 199.91161108 -0.92295333 202.02376556 -0.9536438 C218.046672 -1.17502523 218.046672 -1.17502523 223.0037384 1.80690002 C224.97224029 3.77282367 226.46949034 5.69070427 228 8 C228.99 8.495 228.99 8.495 230 9 C230 9.66 230 10.32 230 11 C230.81210937 11.31904297 230.81210937 11.31904297 231.640625 11.64453125 C234.85307395 13.49009381 237.20604366 16.0392467 239.75 18.6875 C243.85438208 22.89378398 248.00927869 26.88332614 252.57421875 30.59765625 C254 32 254 32 255 35 C256.31403276 35.70394612 257.6520257 36.36345658 259 37 C262.24813551 39.43610163 265.28066245 41.97851384 268 45 C268 45.66 268 46.32 268 47 C268.59458008 47.2678833 269.18916016 47.5357666 269.80175781 47.81176758 C272.02239757 49.01210673 273.4243607 50.20702998 275.171875 52.01171875 C275.7498584 52.60130371 276.3278418 53.19088867 276.92333984 53.79833984 C277.82753662 54.73347412 277.82753662 54.73347412 278.75 55.6875 C283.09641974 60.11463737 287.45443965 64.40568503 292.1953125 68.4140625 C294.98745646 70.86776477 297.55643341 73.53350558 300.140625 76.203125 C301.98032909 78.06705123 301.98032909 78.06705123 304.234375 79.609375 C304.81703125 80.06828125 305.3996875 80.5271875 306 81 C306 81.66 306 82.32 306 83 C306.58265625 83.25394531 307.1653125 83.50789063 307.765625 83.76953125 C310.24188033 85.13320333 311.80520626 86.64225203 313.75 88.6875 C317.10358338 92.13510908 320.58186001 95.33461068 324.23828125 98.45703125 C324.81964844 98.96621094 325.40101563 99.47539062 326 100 C326.52398376 100.43626205 327.04796753 100.87252411 327.58782959 101.32200623 C329.39978894 103.47504419 329.36949411 104.60248066 329.35644531 107.39086914 C329.36088654 108.72915016 329.36088654 108.72915016 329.36541748 110.09446716 C329.35311096 111.06489456 329.34080444 112.03532196 329.328125 113.03515625 C329.32661438 114.05001602 329.32510376 115.06487579 329.32354736 116.11048889 C329.31415491 119.42808805 329.28261091 122.74505436 329.25 126.0625 C329.23809611 128.3325153 329.22703154 130.60253515 329.21679688 132.87255859 C329.1124377 150.92476395 328.69474759 168.96137496 328 187 C321.07 187 314.14 187 307 187 C307 163.57 307 140.14 307 116 C273.67 116 240.34 116 206 116 C206 84.32 206 52.64 206 20 C144.95 20 83.9 20 21 20 C21 75.11 21 130.22 21 187 C14.4 187 7.8 187 1 187 C0.21923868 163.9120727 -0.14327526 140.85851609 -0.10139394 117.75799012 C-0.09497458 113.59148483 -0.0945424 109.4249781 -0.09336853 105.25846863 C-0.09030827 97.43269848 -0.08216959 89.60694295 -0.07201904 81.78117913 C-0.06068907 72.84462661 -0.05530573 63.90807325 -0.05032361 54.9715153 C-0.03997994 36.64766869 -0.02248793 18.32383554 0 0 Z " fill="#000000" transform="translate(92,38)"/>
<path d="M0 0 C6.6 0 13.2 0 20 0 C20 23.76 20 47.52 20 72 C114.38 72 208.76 72 306 72 C306 48.24 306 24.48 306 0 C313.26 0 320.52 0 328 0 C328 30.69 328 61.38 328 93 C219.43 93 110.86 93 -1 93 C-1 1 -1 1 0 0 Z " fill="#030303" transform="translate(93,383)"/>
<path d="M0 0 C67.04878049 0 67.04878049 0 83.75 15.5625 C92.19564416 24.71194784 96.40605794 34.19586147 96.3125 46.75 C96.30686035 47.54349854 96.3012207 48.33699707 96.29541016 49.15454102 C96.06702959 60.25134944 92.66579399 68.52033821 87 78 C86.34 78 85.68 78 85 78 C84.76410156 78.5878125 84.52820313 79.175625 84.28515625 79.78125 C80.42133317 86.45192328 70.99572292 90.52050327 64 93 C47 96 47 96 0 96 C0 64.32 0 32.64 0 0 Z " fill="#FCFCFB" transform="translate(218,263)"/>
<path d="M0 0 C12.2203125 -0.0928125 12.2203125 -0.0928125 24.6875 -0.1875 C28.50380981 -0.22846802 28.50380981 -0.22846802 32.3972168 -0.27026367 C64.75239937 -0.47410243 64.75239937 -0.47410243 76.1015625 9.92578125 C83.68960975 18.21642546 83.68527586 26.03325908 83.4375 36.859375 C83.00958 44.28913596 80.42415314 48.67096222 75.171875 53.77734375 C64.0298377 63.03972842 51.22688857 63.16970336 37.4375 63.0625 C33.663125 63.041875 29.88875 63.02125 26 63 C26 73.89 26 84.78 26 96 C17.42 96 8.84 96 0 96 C0 64.32 0 32.64 0 0 Z " fill="#FCFAF9" transform="translate(116,263)"/>
<path d="M0 0 C23.43 0 46.86 0 71 0 C71 6.27 71 12.54 71 19 C56.15 19 41.3 19 26 19 C26 24.94 26 30.88 26 37 C39.86 37 53.72 37 68 37 C68 43.27 68 49.54 68 56 C54.14 56 40.28 56 26 56 C26 69.2 26 82.4 26 96 C17.42 96 8.84 96 0 96 C0 64.32 0 32.64 0 0 Z " fill="#FCF8F8" transform="translate(334,263)"/>
<path d="M0 0 C27.44532803 0 27.44532803 0 37 9 C43.4871228 17.52936517 44.3862498 26.65148407 43 37 C39.84355963 45.50633931 36.25721955 51.1509076 28.125 55.4375 C18.49480665 59.79233008 10.89538836 59 0 59 C0 39.53 0 20.06 0 0 Z " fill="#E91E25" transform="translate(244,282)"/>
<path d="M0 0 C61.05 0 122.1 0 185 0 C185 31.68 185 63.36 185 96 C184.67 96 184.34 96 184 96 C184 64.65 184 33.3 184 1 C123.61 1 63.22 1 1 1 C1 55.78 1 110.56 1 167 C101.98 167 202.96 167 307 167 C307 155.78 307 144.56 307 133 C311.06630514 134.01657629 311.76351988 134.42855378 314.4375 137.3125 C316.54731433 139.53144266 318.5168718 141.40689907 320.9375 143.3125 C321.618125 143.869375 322.29875 144.42625 323 145 C323 145.66 323 146.32 323 147 C323.57621094 147.2475 324.15242188 147.495 324.74609375 147.75 C327.3370806 149.18694245 329.02044807 150.85958333 331.0625 153 C333.33653856 155.37442798 335.24521929 157.16347952 338 159 C338 159.66 338 160.32 338 161 C334.04322598 159.32598022 331.15535787 156.86850715 328 154 C328 153.34 328 152.68 328 152 C325.03 152 322.06 152 319 152 C319.66 150.35 320.32 148.7 321 147 C320.27683594 146.40251953 320.27683594 146.40251953 319.5390625 145.79296875 C318.90742188 145.26316406 318.27578125 144.73335937 317.625 144.1875 C316.99851562 143.66542969 316.37203125 143.14335937 315.7265625 142.60546875 C314 141 314 141 312 138 C311.01 137.67 310.02 137.34 309 137 C309 147.23 309 157.46 309 168 C305.91406125 169.02864625 303.80995554 169.12631494 300.57641506 169.12863445 C298.87637519 169.13347112 298.87637519 169.13347112 297.14199108 169.1384055 C295.26614435 169.1360826 295.26614435 169.1360826 293.35240173 169.13371277 C292.01480198 169.13558013 290.67720277 169.13788053 289.33960444 169.14057809 C285.65612758 169.14671153 281.97267336 169.14656069 278.28919256 169.14538372 C274.31984122 169.1451801 270.35049723 169.1506946 266.38114929 169.15544128 C258.60237217 169.1637563 250.82360263 169.16649649 243.04482143 169.16705366 C236.72530489 169.16752832 230.40579085 169.16958052 224.0862751 169.17275429 C206.1847704 169.18156233 188.2832717 169.1861733 170.38176482 169.18542381 C169.41619991 169.18538386 168.450635 169.1853439 167.45581055 169.18530273 C166.48907249 169.18526185 165.52233443 169.18522097 164.52630127 169.18517885 C148.84650617 169.18477209 133.16673504 169.19434874 117.48694687 169.2084411 C101.40224402 169.22278383 85.31755288 169.22971248 69.23284346 169.22884732 C60.19629978 169.22851468 51.15978126 169.23129138 42.12324333 169.24202538 C34.43196798 169.25110265 26.74072918 169.25332851 19.04945081 169.24651595 C15.12216482 169.24323695 11.1949491 169.24324345 7.26766968 169.2518692 C3.67720418 169.25967444 0.08686535 169.25836476 -3.50359683 169.24958507 C-5.42764642 169.24729962 -7.35169976 169.25492526 -9.27573448 169.26282471 C-10.40648665 169.25822592 -11.53723882 169.25362712 -12.7022562 169.24888897 C-13.68410564 169.24910634 -14.66595508 169.24932371 -15.67755753 169.24954766 C-18 169 -18 169 -20 167 C-13.4 167 -6.8 167 0 167 C0 111.89 0 56.78 0 0 Z " fill="#B55A5D" transform="translate(113,58)"/>
<path d="M0 0 C2.825625 -0.04125 5.65125 -0.0825 8.5625 -0.125 C9.43849854 -0.14320801 10.31449707 -0.16141602 11.21704102 -0.18017578 C17.35029499 -0.22311895 23.72061689 0.10268892 28.4375 4.5 C30.88014578 7.19283591 31.51349189 9.32387606 31.75 12.9375 C31.45958993 17.63364329 29.96177154 20.22713963 26.80078125 23.625 C21.4917303 27.67876558 16.07570858 27.24147722 9.6875 27.125 C4.8921875 27.063125 4.8921875 27.063125 0 27 C0 18.09 0 9.18 0 0 Z " fill="#E5222A" transform="translate(142,281)"/>
<path d="M0 0 C0.99 0.33 1.98 0.66 3 1 C3 1.66 3 2.32 3 3 C3.99 3.33 4.98 3.66 6 4 C7.40085579 6.80171158 7.12273896 9.10342947 7.12025452 12.23880005 C7.12110894 12.88571017 7.12196337 13.53262029 7.12284368 14.19913375 C7.12449662 16.37643596 7.11898016 18.55366187 7.11352539 20.73095703 C7.11324345 22.28788247 7.11340138 23.84480804 7.1139679 25.4017334 C7.11425561 29.63702866 7.10836302 33.87229578 7.10139394 38.10758448 C7.09515613 42.53053299 7.09455626 46.95348209 7.09336853 51.37643433 C7.09025648 59.75579183 7.08204478 68.13513633 7.07201904 76.5144881 C7.060854 86.05244071 7.05534647 95.59039393 7.05032361 105.12835145 C7.03986207 124.75224156 7.02226505 144.37611996 7 164 C6.34 164 5.68 164 5 164 C4.99780016 162.7840962 4.99780016 162.7840962 4.99555588 161.54362869 C4.95852352 141.83075607 4.89955638 122.11805586 4.81609726 102.40532303 C4.77626759 92.87242597 4.7438951 83.33961194 4.72900391 73.80664062 C4.7160077 65.49885236 4.68909521 57.19124647 4.64538693 48.8835609 C4.62272623 44.48361202 4.60709207 40.08388845 4.60811615 35.68387604 C4.60886006 31.54366096 4.59101851 27.40394482 4.55883217 23.2638588 C4.55030326 21.743308 4.54860347 20.22270142 4.55419731 18.70213699 C4.56081441 16.62727462 4.54297577 14.55401045 4.51898193 12.47930908 C4.51529476 11.31784992 4.51160759 10.15639076 4.50780869 8.95973587 C3.89477655 5.38671071 2.67362953 4.33728565 0 2 C0 1.34 0 0.68 0 0 Z " fill="#B63B42" transform="translate(451,219)"/>
<path d="M0 0 C14.52 0 29.04 0 44 0 C44 0.33 44 0.66 44 1 C30.47 1.33 16.94 1.66 3 2 C2.67 32.69 2.34 63.38 2 95 C16.85 95 31.7 95 47 95 C47 95.33 47 95.66 47 96 C31.49 96 15.98 96 0 96 C0 64.32 0 32.64 0 0 Z " fill="#EECECE" transform="translate(218,263)"/>
<path d="M0 0 C4.06630514 1.01657629 4.76351988 1.42855378 7.4375 4.3125 C9.54731433 6.53144266 11.5168718 8.40689907 13.9375 10.3125 C14.9584375 11.1478125 14.9584375 11.1478125 16 12 C16 12.66 16 13.32 16 14 C16.86431641 14.37125 16.86431641 14.37125 17.74609375 14.75 C20.3370806 16.18694245 22.02044807 17.85958333 24.0625 20 C26.33653856 22.37442798 28.24521929 24.16347952 31 26 C31 26.66 31 27.32 31 28 C27.04322598 26.32598022 24.15535787 23.86850715 21 21 C21 20.34 21 19.68 21 19 C18.03 19 15.06 19 12 19 C12.66 17.35 13.32 15.7 14 14 C13.51789063 13.60167969 13.03578125 13.20335937 12.5390625 12.79296875 C11.90742188 12.26316406 11.27578125 11.73335937 10.625 11.1875 C9.99851562 10.66542969 9.37203125 10.14335937 8.7265625 9.60546875 C7 8 7 8 5 5 C4.01 4.67 3.02 4.34 2 4 C2 14.23 2 24.46 2 35 C-5.59 35 -13.18 35 -21 35 C-21 34.67 -21 34.34 -21 34 C-14.07 34 -7.14 34 0 34 C0 22.78 0 11.56 0 0 Z " fill="#BF1E26" transform="translate(420,191)"/>
<path d="M0 0 C19 0 19 0 27 2 C27 2.33 27 2.66 27 3 C25.845 2.855625 24.69 2.71125 23.5 2.5625 C16.35171985 1.83142589 9.17157404 1.44822338 2 1 C2 19.48 2 37.96 2 57 C8.6 57 15.2 57 22 57 C22 57.33 22 57.66 22 58 C14.45646977 59.20696484 7.91510371 59 0 59 C0 39.53 0 20.06 0 0 Z " fill="#DB4F5A" transform="translate(244,282)"/>
<path d="M0 0 C13.86 0 27.72 0 42 0 C42 0.33 42 0.66 42 1 C28.8 1 15.6 1 2 1 C2.36857098 13.79008196 2.36857098 13.79008196 2.74829102 26.57983398 C2.79223564 28.17690945 2.83580048 29.77399543 2.87890625 31.37109375 C2.90561401 32.20805786 2.93232178 33.04502197 2.95983887 33.90734863 C3.01221448 35.93760107 3.01194722 37.96910723 3 40 C2 41 2 41 -0.68383789 41.11352539 C-1.85164795 41.10828857 -3.01945801 41.10305176 -4.22265625 41.09765625 C-5.48271484 41.09443359 -6.74277344 41.09121094 -8.04101562 41.08789062 C-9.38151109 41.07953403 -10.72200588 41.07106907 -12.0625 41.0625 C-13.40689942 41.0574866 -14.7513006 41.05292342 -16.09570312 41.04882812 C-19.39717941 41.03699488 -22.69856803 41.02050971 -26 41 C-26 40.67 -26 40.34 -26 40 C-17.42 40 -8.84 40 0 40 C0 26.8 0 13.6 0 0 Z " fill="#D63339" transform="translate(360,319)"/>
<path d="M0 0 C0.495 1.98 0.495 1.98 1 4 C-0.32 4.33 -1.64 4.66 -3 5 C-3 5.66 -3 6.32 -3 7 C-4.64948026 8.50034917 -6.40365576 9.81956121 -8.17578125 11.171875 C-10.19743166 12.99334832 -10.19743166 12.99334832 -11.38671875 15.9296875 C-13.27492941 19.52323127 -15.19641558 21.05716254 -18.5 23.375 C-19.4590625 24.06335938 -20.418125 24.75171875 -21.40625 25.4609375 C-24 27 -24 27 -27 27 C-27 27.66 -27 28.32 -27 29 C-27.66 29 -28.32 29 -29 29 C-29.2475 29.61875 -29.495 30.2375 -29.75 30.875 C-31.20628639 33.35068687 -32.37812506 33.95125002 -35 35 C-33.60537573 31.80865815 -31.99566223 29.80914955 -29.4375 27.4609375 C-28.72762939 26.80262939 -28.01775879 26.14432129 -27.28637695 25.46606445 C-26.53187256 24.77601318 -25.77736816 24.08596191 -25 23.375 C-23.45064997 21.94006752 -21.90246845 20.50387231 -20.35546875 19.06640625 C-19.60571777 18.37047363 -18.8559668 17.67454102 -18.08349609 16.95751953 C-15.43116087 14.46555518 -12.86624719 11.90535512 -10.3125 9.3125 C-7.02205144 5.97705386 -3.67681001 2.90274474 0 0 Z " fill="#D8282F" transform="translate(91,190)"/>
<path d="M0 0 C0.33 0 0.66 0 1 0 C1.167247 4.823616 1.32784308 9.64738911 1.48217773 14.47143555 C1.53566959 16.11374934 1.59100431 17.75600416 1.64819336 19.39819336 C1.72990479 21.75361406 1.80506639 24.10916482 1.87890625 26.46484375 C1.90594131 27.20339096 1.93297638 27.94193817 1.96083069 28.7028656 C2.0129438 30.46785616 2.0118612 32.2342801 2 34 C1 35 1 35 -1.50024414 35.11352539 C-2.58426514 35.10828857 -3.66828613 35.10305176 -4.78515625 35.09765625 C-6.53989258 35.09282227 -6.53989258 35.09282227 -8.33007812 35.08789062 C-9.56177734 35.07951172 -10.79347656 35.07113281 -12.0625 35.0625 C-13.91584961 35.05573242 -13.91584961 35.05573242 -15.80664062 35.04882812 C-18.87114117 35.03699608 -21.93554721 35.02051173 -25 35 C-25.33 34.34 -25.66 33.68 -26 33 C-17.42 33 -8.84 33 0 33 C0 22.11 0 11.22 0 0 Z " fill="#D3464C" transform="translate(142,326)"/>
<path d="M0 0 C3.89332736 1.63148956 6.64719075 4.17627942 9.75 7 C10.25660156 7.45117188 10.76320313 7.90234375 11.28515625 8.3671875 C12.56545817 9.53360812 13.78791729 10.76283971 15 12 C15 12.66 15 13.32 15 14 C15.86431641 14.37125 15.86431641 14.37125 16.74609375 14.75 C19.3370806 16.18694245 21.02044807 17.85958333 23.0625 20 C25.33653856 22.37442798 27.24521929 24.16347952 30 26 C30 26.66 30 27.32 30 28 C26.04322598 26.32598022 23.15535787 23.86850715 20 21 C20 20.34 20 19.68 20 19 C17.03 19 14.06 19 11 19 C11.66 17.35 12.32 15.7 13 14 C12.55269531 13.62488281 12.10539062 13.24976563 11.64453125 12.86328125 C1.3960396 4.18811881 1.3960396 4.18811881 0 0 Z " fill="#C52127" transform="translate(421,191)"/>
<path d="M0 0 C12.21 0 24.42 0 37 0 C37.495 1.485 37.495 1.485 38 3 C26.12 3 14.24 3 2 3 C2 2.34 2 1.68 2 1 C1.34 0.67 0.68 0.34 0 0 Z " fill="#D91121" transform="translate(419,381)"/>
<path d="M0 0 C0.33 1.32 0.66 2.64 1 4 C-0.32 4.33 -1.64 4.66 -3 5 C-3 5.66 -3 6.32 -3 7 C-4.78104718 8.60178593 -6.62537278 10.13381926 -8.5 11.625 C-9.5209375 12.44226563 -10.541875 13.25953125 -11.59375 14.1015625 C-12.3878125 14.72804687 -13.181875 15.35453125 -14 16 C-14 13 -14 13 -12.4609375 11.1328125 C-11.77257812 10.47023437 -11.08421875 9.80765625 -10.375 9.125 C-9.65054688 8.42632812 -8.92609375 7.72765625 -8.1796875 7.0078125 C-5.52703602 4.56433067 -2.81598252 2.25278602 0 0 Z " fill="#C22D34" transform="translate(91,190)"/>
<path d="M0 0 C0.33 0 0.66 0 1 0 C1.48778355 2.68280955 1.29804825 4.45757503 -0.01953125 6.85546875 C-2.1958194 9.76318157 -3.83220783 11.67529681 -7.40234375 12.66796875 C-9.62174866 12.9098944 -11.76882001 13.03470724 -14 13 C-11.88701845 10.72003511 -10.42026145 9.69431967 -7.5625 8.1875 C-3.7366447 6.10875833 -2.19095195 3.70776484 0 0 Z " fill="#F3DBDB" transform="translate(283,326)"/>
<path d="M0 0 C1.96875 1.19140625 1.96875 1.19140625 4 3 C4.76529894 6.37069167 4.57845613 9.60157026 4 13 C2 15.625 2 15.625 0 17 C0 16.34 0 15.68 0 15 C-0.99 15 -1.98 15 -3 15 C-3 14.34 -3 13.68 -3 13 C-2.38125 12.95875 -1.7625 12.9175 -1.125 12.875 C-0.42375 12.58625 0.2775 12.2975 1 12 C2.3045656 9.00384054 2.3045656 9.00384054 3 6 C2.34 6 1.68 6 1 6 C0.67 4.02 0.34 2.04 0 0 Z " fill="#DE272C" transform="translate(169,286)"/>
<path d="M0 0 C0.99 0.33 1.98 0.66 3 1 C2.67 1.33 2.34 1.66 2 2 C2.99 2.66 3.98 3.32 5 4 C4.67 4.66 4.34 5.32 4 6 C3.03964844 5.68289063 2.07929688 5.36578125 1.08984375 5.0390625 C-3.39134925 3.75872164 -7.80075534 3.55434226 -12.4375 3.375 C-13.67790039 3.31699219 -13.67790039 3.31699219 -14.94335938 3.2578125 C-16.96191073 3.16446908 -18.98092331 3.08119039 -21 3 C-21 2.67 -21 2.34 -21 2 C-20.15236084 1.96241577 -20.15236084 1.96241577 -19.28759766 1.92407227 C-16.73316258 1.80820044 -14.1791045 1.68543463 -11.625 1.5625 C-10.29082031 1.50352539 -10.29082031 1.50352539 -8.9296875 1.44335938 C-8.07890625 1.40146484 -7.228125 1.35957031 -6.3515625 1.31640625 C-5.56604004 1.27974854 -4.78051758 1.24309082 -3.97119141 1.20532227 C-1.92476504 1.109109 -1.92476504 1.109109 0 0 Z " fill="#F9E5E7" transform="translate(163,278)"/>
<path d="M0 0 C0 10.23 0 20.46 0 31 C-0.33 31 -0.66 31 -1 31 C-1.01981934 30.16227051 -1.03963867 29.32454102 -1.06005859 28.46142578 C-1.13810612 25.35634166 -1.22479635 22.25165461 -1.31738281 19.14697266 C-1.37454036 17.14113029 -1.42168596 15.13501082 -1.46875 13.12890625 C-1.52675781 11.24365234 -1.52675781 11.24365234 -1.5859375 9.3203125 C-1.6173584 8.15773926 -1.6487793 6.99516602 -1.68115234 5.79736328 C-1.72157869 2.86343518 -1.72157869 2.86343518 -4 1 C-2 0 -2 0 0 0 Z " fill="#E0202D" transform="translate(92,194)"/>
<path d="M0 0 C5.61 0 11.22 0 17 0 C17 0.66 17 1.32 17 2 C17.99 2.33 18.98 2.66 20 3 C17.27042281 4.3647886 15.78258788 3.72311425 12.8125 3.125 C8.54757906 2.29446276 4.30614639 1.57415285 0 1 C0 0.67 0 0.34 0 0 Z " fill="#D2414C" transform="translate(262,263)"/>
<path d="M0 0 C0.33 1.98 0.66 3.96 1 6 C2.32 5.67 3.64 5.34 5 5 C4.34 7.31 3.68 9.62 3 12 C0.0843836 8.45960866 -2.50127818 4.8373228 -5 1 C-2 0 -2 0 0 0 Z " fill="#DE2935" transform="translate(195,270)"/>
<path d="M0 0 C1.5 1.125 1.5 1.125 3 3 C3.1875 6.1875 3.1875 6.1875 3 9 C0.69 7.02 -1.62 5.04 -4 3 C-2.68 2.01 -1.36 1.02 0 0 Z " fill="#DD2C31" transform="translate(304,275)"/>
<path d="M0 0 C0.45890625 0.39832031 0.9178125 0.79664063 1.390625 1.20703125 C5.31674827 4.60015709 5.31674827 4.60015709 9.4375 7.75 C9.953125 8.1625 10.46875 8.575 11 9 C11 9.66 11 10.32 11 11 C7.04322598 9.32598022 4.15535787 6.86850715 1 4 C1 3.34 1 2.68 1 2 C0.34 1.67 -0.32 1.34 -1 1 C-0.67 0.67 -0.34 0.34 0 0 Z " fill="#C12B38" transform="translate(440,208)"/>
<path d="M0 0 C2.34917898 2.15341406 3.82443004 4.21667937 5.25 7.0625 C5.60578125 7.75472656 5.9615625 8.44695312 6.328125 9.16015625 C6.54984375 9.76730469 6.7715625 10.37445313 7 11 C6.67 11.66 6.34 12.32 6 13 C5.01 12.67 4.02 12.34 3 12 C2.05078125 9.27734375 2.05078125 9.27734375 1.3125 5.9375 C1.06113281 4.83277344 0.80976563 3.72804688 0.55078125 2.58984375 C0.36902344 1.73519531 0.18726563 0.88054687 0 0 Z " fill="#F1D2D4" transform="translate(305,283)"/>
<path d="M0 0 C3.21524305 1.40844718 5.32183868 3.10344786 7.75 5.625 C8.67039062 6.57246094 8.67039062 6.57246094 9.609375 7.5390625 C10.29773438 8.26222656 10.29773438 8.26222656 11 9 C10.67 9.66 10.34 10.32 10 11 C9.278125 10.2575 8.55625 9.515 7.8125 8.75 C5.09288953 5.98732731 5.09288953 5.98732731 2.1875 3.8125 C1.465625 3.214375 0.74375 2.61625 0 2 C0 1.34 0 0.68 0 0 Z " fill="#C73238" transform="translate(421,191)"/>
<path d="M0 0 C0 0.66 0 1.32 0 2 C-0.66 2 -1.32 2 -2 2 C-2 2.66 -2 3.32 -2 4 C-2.66 4 -3.32 4 -4 4 C-4.2475 4.61875 -4.495 5.2375 -4.75 5.875 C-6.20628639 8.35068687 -7.37812506 8.95125002 -10 10 C-8.50006099 6.10015857 -4.53875449 0 0 0 Z " fill="#C7323C" transform="translate(66,215)"/>
<path d="M0 0 C0.33 1.32 0.66 2.64 1 4 C-0.32 4.33 -1.64 4.66 -3 5 C-3 5.66 -3 6.32 -3 7 C-4.32 7.33 -5.64 7.66 -7 8 C-5.61918777 3.8575633 -3.40174442 2.67796901 0 0 Z " fill="#C53745" transform="translate(91,190)"/>
<path d="M0 0 C0.66 0 1.32 0 2 0 C2.66 0.66 3.32 1.32 4 2 C4.66 2.33 5.32 2.66 6 3 C5.67 4.98 5.34 6.96 5 9 C2.67527795 6.14693203 1.2491742 3.45925163 0 0 Z " fill="#F4E2E4" transform="translate(281,291)"/>
<path d="M0 0 C1.984375 1.17578125 1.984375 1.17578125 4 3 C4.390625 5.48046875 4.390625 5.48046875 4.25 8.1875 C4.21390625 9.08855469 4.1778125 9.98960937 4.140625 10.91796875 C4.09421875 11.60503906 4.0478125 12.29210937 4 13 C3.67 13 3.34 13 3 13 C3 10.69 3 8.38 3 6 C2.34 6 1.68 6 1 6 C0.67 4.02 0.34 2.04 0 0 Z " fill="#E0595E" transform="translate(169,286)"/>
<path d="M0 0 C0.66 0.33 1.32 0.66 2 1 C0.9375 2.9375 0.9375 2.9375 -1 5 C-4.6875 5.75 -4.6875 5.75 -8 6 C-5.38485683 3.87961365 -2.80362384 1.86908256 0 0 Z " fill="#DB4950" transform="translate(297,347)"/>
<path d="M0 0 C1.32 0.33 2.64 0.66 4 1 C-2.75 5 -2.75 5 -5 5 C-4.67 4.01 -4.34 3.02 -4 2 C-2.68 2 -1.36 2 0 2 C0 1.34 0 0.68 0 0 Z " fill="#F7E8EC" transform="translate(290,349)"/>
</svg>
